<svg version="1.1" baseProfile="tiny" id="Layer_1" xmlns="http://www.w3.org/2000/svg" xmlns:xlink="http://www.w3.org/1999/xlink" x="0px" y="0px" viewBox="0 0 218.3 127.6" xml:space="preserve"><g><path d="M44.5,71.1c0,1.3-0.3,2.5-0.9,3.6c-0.6,1.1-1.5,2-2.9,2.7v0.1c0.7,0.3,1.4,0.6,2,1c0.6,0.4,1.1,0.9,1.6,1.4 c0.4,0.5,0.8,1.2,1,1.8c0.2,0.7,0.4,1.4,0.4,2.3c0,0.7-0.1,1.5-0.3,2.3c-0.2,0.8-0.6,1.6-1.2,2.4c-0.6,0.8-1.4,1.5-2.3,2.2 c-1,0.7-2.2,1.2-3.7,1.6c-0.4,0.1-0.8,0.2-1.2,0.2c-0.4,0.1-0.9,0.1-1.5,0.2c-0.5,0.1-1.1,0.1-1.8,0.1c-0.7,0-1.4,0-2.2,0h-8.7 V63.2h10.4c2.2,0,4,0.2,5.4,0.7c1,0.3,1.9,0.8,2.6,1.3c0.7,0.5,1.4,1.1,1.8,1.8c0.5,0.6,0.8,1.3,1.1,2.1 C44.4,69.7,44.5,70.4,44.5,71.1z M33.3,75.5c1.5,0,2.6-0.1,3.3-0.4c0.8-0.3,1.4-0.8,1.8-1.4c0.3-0.6,0.5-1.3,0.5-2 c0-0.8-0.2-1.5-0.6-2.1c-0.4-0.6-1.1-1.1-2.1-1.4c-0.4-0.1-0.9-0.2-1.4-0.3c-0.5-0.1-1.2-0.1-2-0.1h-4.5v7.7H33.3z M28.4,80v8.4H32 c1,0,1.8,0,2.5-0.1c0.7-0.1,1.3-0.1,1.8-0.3c0.8-0.2,1.4-0.4,1.9-0.7c0.5-0.3,0.9-0.6,1.2-0.9c0.3-0.3,0.5-0.7,0.7-1.2 c0.1-0.4,0.2-0.9,0.2-1.3c0-0.8-0.2-1.6-0.7-2.2c-0.5-0.6-1.2-1.1-2.2-1.4c-0.4-0.1-0.9-0.2-1.5-0.3c-0.6-0.1-1.3-0.1-2.2-0.1H28.4 z"/><path d="M73.9,72.1c0,2.1-0.6,3.8-1.7,5.3c-1.2,1.4-2.9,2.5-5.3,3.2v0.1L75.7,93h-6.6l-8.1-11.5h-3.7V93h-5.5V63.2h9.1 c1.5,0,2.9,0.1,4.2,0.3c1.3,0.2,2.4,0.4,3.3,0.8c1.8,0.7,3.1,1.7,4.1,3C73.5,68.5,73.9,70.2,73.9,72.1z M60,76.9 c1.2,0,2.3-0.1,3.2-0.2s1.6-0.3,2.2-0.5c1.1-0.4,1.9-1,2.3-1.7c0.4-0.7,0.6-1.5,0.6-2.5c0-0.8-0.2-1.5-0.5-2.1 c-0.3-0.6-0.9-1.1-1.7-1.5c-0.5-0.2-1.2-0.4-2-0.5c-0.8-0.1-1.8-0.2-2.9-0.2h-3.9v9.1H60z"/><path d="M82.8,93V63.2h5.5V93H82.8z"/><path d="M105.6,69.3c1.4,2.1,2.5,3.6,3,4.5h0.1c0.8-1.2,1.8-2.7,3-4.5l4.3-6.2h6.3l-10.4,14.7L122.7,93h-6.2l-4.7-6.7 c-1.1-1.6-2.2-3.2-3.2-4.6h-0.1c-1,1.5-2.1,3.1-3.2,4.6l-4.7,6.7h-6.2l10.8-15.2L95,63.2h6.3L105.6,69.3z"/><path d="M140.1,93h-5.5V67.7H125v-4.6h24.7v4.6h-9.6V93z"/><path d="M180.6,78.1c0,2.3-0.3,4.4-1,6.3c-0.6,1.9-1.6,3.5-2.8,4.9c-1.2,1.4-2.8,2.4-4.6,3.2c-1.8,0.8-3.9,1.1-6.2,1.1 c-2.3,0-4.4-0.4-6.2-1.1c-1.8-0.8-3.3-1.8-4.6-3.2c-1.2-1.4-2.2-3-2.8-4.9c-0.6-1.9-1-4-1-6.3c0-2.3,0.3-4.4,1-6.3 c0.6-1.9,1.6-3.5,2.8-4.9c1.2-1.4,2.8-2.4,4.6-3.2c1.8-0.8,3.9-1.1,6.2-1.1c2.3,0,4.4,0.4,6.2,1.1c1.8,0.8,3.3,1.8,4.6,3.2 c1.2,1.4,2.2,3,2.8,4.9C180.3,73.7,180.6,75.8,180.6,78.1z M174.9,78.1c0-1.8-0.2-3.4-0.7-4.8c-0.4-1.4-1.1-2.5-1.9-3.4 c-0.8-0.9-1.7-1.6-2.8-2c-1.1-0.4-2.3-0.7-3.6-0.7c-1.3,0-2.5,0.2-3.6,0.7c-1.1,0.4-2,1.1-2.8,2c-0.8,0.9-1.4,2-1.9,3.4 c-0.4,1.4-0.7,2.9-0.7,4.8c0,1.8,0.2,3.4,0.7,4.8c0.4,1.4,1.1,2.5,1.9,3.4c0.8,0.9,1.7,1.6,2.8,2c1.1,0.5,2.3,0.7,3.6,0.7 c1.3,0,2.5-0.2,3.6-0.7c1.1-0.5,2-1.1,2.8-2c0.8-0.9,1.4-2,1.9-3.4C174.7,81.5,174.9,79.9,174.9,78.1z"/><path d="M190.7,63.2v25.3h14V93h-19.4V63.2H190.7z"/></g><g><polygon points="106.1,43.1 106.1,18.1 88.3,18.1 "/><polygon points="84,21.6 84,44.6 100.4,44.6 "/></g><g><polygon points="111.4,42.6 111.4,17.7 129.3,17.7 "/><polygon points="133.5,21.2 133.5,44.1 117.1,44.1 "/></g><path d="M73.4,8.1v46.7h70.1V8.1H73.4z M138.7,49.8H78.4V13.2h60.2V49.8z"/><g><path d="M28.9,114h-2.1v-9.5h-3.6v-1.7h9.3v1.7h-3.6V114z"/><path d="M51.7,112.2h5.5v1.7h-7.6v-11.2h7.3v1.7h-5.2v2.9h4.5v1.7h-4.5V112.2z"/><path d="M77.8,105c0.5,0.8,0.9,1.4,1.1,1.7h0c0.3-0.5,0.7-1,1.1-1.7l1.6-2.3h2.4l-3.9,5.5l4.1,5.7H82l-1.8-2.5 c-0.4-0.6-0.8-1.2-1.2-1.7h0c-0.4,0.6-0.8,1.2-1.2,1.7L76,114h-2.3l4.1-5.7l-3.9-5.5h2.4L77.8,105z"/><path d="M105.9,114h-2.1v-9.5h-3.6v-1.7h9.3v1.7h-3.6V114z"/><path d="M126.6,114v-11.2h2.1V114H126.6z"/><path d="M148.9,102.7v9.5h5.3v1.7h-7.3v-11.2H148.9z"/><path d="M173.7,112.2h5.5v1.7h-7.6v-11.2h7.3v1.7h-5.2v2.9h4.5v1.7h-4.5V112.2z"/><path d="M202.4,110.7c0-0.3-0.1-0.5-0.2-0.7c-0.1-0.2-0.3-0.3-0.6-0.4c-0.2-0.1-0.5-0.2-0.8-0.3c-0.3-0.1-0.6-0.1-0.9-0.2 c-0.4-0.1-0.9-0.2-1.3-0.3c-0.4-0.1-0.7-0.3-1.1-0.5c-0.3-0.2-0.5-0.5-0.7-0.9s-0.3-0.8-0.3-1.3c0-0.6,0.1-1.1,0.3-1.6 s0.5-0.8,0.8-1.1c0.4-0.3,0.8-0.5,1.3-0.6c0.5-0.1,1-0.2,1.6-0.2c0.6,0,1.2,0.1,1.8,0.2c0.6,0.1,1.1,0.3,1.6,0.5v1.8 c-0.6-0.2-1.1-0.4-1.7-0.5s-1-0.2-1.5-0.2c-0.7,0-1.2,0.1-1.6,0.4c-0.4,0.2-0.6,0.6-0.6,1.1c0,0.3,0.1,0.5,0.2,0.7 c0.1,0.2,0.3,0.3,0.5,0.5c0.2,0.1,0.4,0.2,0.7,0.3c0.3,0.1,0.6,0.1,0.9,0.2c0.5,0.1,0.9,0.2,1.4,0.3s0.8,0.3,1.2,0.6 s0.6,0.5,0.8,0.9c0.2,0.4,0.3,0.9,0.3,1.5c0,0.6-0.1,1.1-0.3,1.6c-0.2,0.4-0.5,0.8-1,1.1c-0.4,0.3-0.9,0.5-1.5,0.6 c-0.6,0.1-1.2,0.2-1.9,0.2c-0.6,0-1.2-0.1-1.8-0.2c-0.6-0.1-1.1-0.3-1.5-0.5v-1.7c0.6,0.2,1.1,0.4,1.6,0.5c0.5,0.1,1.1,0.2,1.6,0.2 c0.3,0,0.6,0,1-0.1c0.3-0.1,0.6-0.1,0.8-0.3c0.2-0.1,0.4-0.3,0.6-0.5C202.4,111.3,202.4,111.1,202.4,110.7z"/></g></svg>